{
	"asset":{
		"generator":"Khronos glTF Blender I/O v3.6.27",
		"version":"2.0"
	},
	"extensionsUsed":[
		"KHR_lights_punctual"
	],
	"extensionsRequired":[
		"KHR_lights_punctual"
	],
	"extensions":{
		"KHR_lights_punctual":{
			"lights":[
				{
					"color":[
						1,
						1,
						1
					],
					"intensity":2.0088235686998814,
					"type":"directional",
					"name":"Sun"
				}
			]
		}
	},
	"scene":0,
	"scenes":[
		{
			"extras":{
				"character_ui_object":{}
			},
			"name":"Scene",
			"nodes":[
				0,
				1,
				2,
				3,
				4
			]
		}
	],
	"nodes":[
		{
			"extensions":{
				"KHR_lights_punctual":{
					"light":0
				}
			},
			"name":"Sun",
			"rotation":[
				-0.5276240706443787,
				0.29710015654563904,
				-0.36804303526878357,
				0.7056123614311218
			],
			"translation":[
				4.347398281097412,
				3.6654140949249268,
				-0.9135676026344299
			]
		},
		{
			"mesh":0,
			"name":"Plane"
		},
		{
			"mesh":1,
			"name":"Plane.001"
		},
		{
			"mesh":2,
			"name":"Plane.002"
		},
		{
			"mesh":3,
			"name":"Plane.003"
		}
	],
	"materials":[
		{
			"doubleSided":true,
			"name":"Material.001",
			"pbrMetallicRoughness":{
				"baseColorFactor":[
					0.800000011920929,
					0.800000011920929,
					0.800000011920929,
					1
				],
				"metallicFactor":0.5,
				"roughnessFactor":0.800000011920929
			}
		}
	],
	"meshes":[
		{
			"name":"Plane.001",
			"primitives":[
				{
					"attributes":{
						"POSITION":0,
						"NORMAL":1,
						"TEXCOORD_0":2
					},
					"indices":3,
					"material":0
				}
			]
		},
		{
			"name":"Plane.002",
			"primitives":[
				{
					"attributes":{
						"POSITION":4,
						"NORMAL":5,
						"TEXCOORD_0":6
					},
					"indices":7,
					"material":0
				}
			]
		},
		{
			"name":"Plane.003",
			"primitives":[
				{
					"attributes":{
						"POSITION":8,
						"NORMAL":9,
						"TEXCOORD_0":10
					},
					"indices":11,
					"material":0
				}
			]
		},
		{
			"name":"Plane.004",
			"primitives":[
				{
					"attributes":{
						"POSITION":12,
						"NORMAL":13,
						"TEXCOORD_0":14
					},
					"indices":15,
					"material":0
				}
			]
		}
	],
	"accessors":[
		{
			"bufferView":0,
			"componentType":5126,
			"count":219,
			"max":[
				7,
				9.026302337646484,
				37
			],
			"min":[
				-30,
				0,
				-7
			],
			"type":"VEC3"
		},
		{
			"bufferView":1,
			"componentType":5126,
			"count":219,
			"type":"VEC3"
		},
		{
			"bufferView":2,
			"componentType":5126,
			"count":219,
			"type":"VEC2"
		},
		{
			"bufferView":3,
			"componentType":5123,
			"count":432,
			"type":"SCALAR"
		},
		{
			"bufferView":4,
			"componentType":5126,
			"count":22,
			"max":[
				7,
				8.005364418029785,
				37
			],
			"min":[
				-16.000003814697266,
				0.005364418029785156,
				20
			],
			"type":"VEC3"
		},
		{
			"bufferView":5,
			"componentType":5126,
			"count":22,
			"type":"VEC3"
		},
		{
			"bufferView":6,
			"componentType":5126,
			"count":22,
			"type":"VEC2"
		},
		{
			"bufferView":7,
			"componentType":5123,
			"count":60,
			"type":"SCALAR"
		},
		{
			"bufferView":8,
			"componentType":5126,
			"count":136,
			"max":[
				-29.999996185302734,
				0.39414265751838684,
				37
			],
			"min":[
				-73.99998474121094,
				-18.67873764038086,
				-7.000001907348633
			],
			"type":"VEC3"
		},
		{
			"bufferView":9,
			"componentType":5126,
			"count":136,
			"type":"VEC3"
		},
		{
			"bufferView":10,
			"componentType":5126,
			"count":136,
			"type":"VEC2"
		},
		{
			"bufferView":11,
			"componentType":5123,
			"count":378,
			"type":"SCALAR"
		},
		{
			"bufferView":12,
			"componentType":5126,
			"count":130,
			"max":[
				-29.999996185302734,
				0.021261736750602722,
				37
			],
			"min":[
				-73.99998474121094,
				-18.67873764038086,
				-7.000001907348633
			],
			"type":"VEC3"
		},
		{
			"bufferView":13,
			"componentType":5126,
			"count":130,
			"type":"VEC3"
		},
		{
			"bufferView":14,
			"componentType":5126,
			"count":130,
			"type":"VEC2"
		},
		{
			"bufferView":15,
			"componentType":5123,
			"count":384,
			"type":"SCALAR"
		}
	],
	"bufferViews":[
		{
			"buffer":0,
			"byteLength":2628,
			"byteOffset":0,
			"target":34962
		},
		{
			"buffer":0,
			"byteLength":2628,
			"byteOffset":2628,
			"target":34962
		},
		{
			"buffer":0,
			"byteLength":1752,
			"byteOffset":5256,
			"target":34962
		},
		{
			"buffer":0,
			"byteLength":864,
			"byteOffset":7008,
			"target":34963
		},
		{
			"buffer":0,
			"byteLength":264,
			"byteOffset":7872,
			"target":34962
		},
		{
			"buffer":0,
			"byteLength":264,
			"byteOffset":8136,
			"target":34962
		},
		{
			"buffer":0,
			"byteLength":176,
			"byteOffset":8400,
			"target":34962
		},
		{
			"buffer":0,
			"byteLength":120,
			"byteOffset":8576,
			"target":34963
		},
		{
			"buffer":0,
			"byteLength":1632,
			"byteOffset":8696,
			"target":34962
		},
		{
			"buffer":0,
			"byteLength":1632,
			"byteOffset":10328,
			"target":34962
		},
		{
			"buffer":0,
			"byteLength":1088,
			"byteOffset":11960,
			"target":34962
		},
		{
			"buffer":0,
			"byteLength":756,
			"byteOffset":13048,
			"target":34963
		},
		{
			"buffer":0,
			"byteLength":1560,
			"byteOffset":13804,
			"target":34962
		},
		{
			"buffer":0,
			"byteLength":1560,
			"byteOffset":15364,
			"target":34962
		},
		{
			"buffer":0,
			"byteLength":1040,
			"byteOffset":16924,
			"target":34962
		},
		{
			"buffer":0,
			"byteLength":768,
			"byteOffset":17964,
			"target":34963
		}
	],
	"buffers":[
		{
			"byteLength":18732,
			"uri":"data:application/octet-stream;base64,"
		}
	]
}
