{
    "asset" : {
        "generator" : "Khronos glTF Blender I/O v3.4.50",
        "version" : "2.0"
    },
    "scene" : 0,
    "scenes" : [
        {
            "name" : "Scene",
            "nodes" : [
                0,
                1,
                2,
                3,
                4
            ]
        }
    ],
    "nodes" : [
        {
            "mesh" : 0,
            "name" : "Plane"
        },
        {
            "mesh" : 1,
            "name" : "Plane.001",
            "translation" : [
                0,
                0,
                -4
            ]
        },
        {
            "mesh" : 2,
            "name" : "Plane.002",
            "translation" : [
                0,
                0,
                -8
            ]
        },
        {
            "mesh" : 3,
            "name" : "Text",
            "rotation" : [
                0.5,
                0.5,
                -0.4999999403953552,
                0.5000000596046448
            ],
            "translation" : [
                -1,
                0,
                0
            ]
        },
        {
            "mesh" : 4,
            "name" : "Text.001",
            "rotation" : [
                0.5,
                0.5,
                -0.4999999403953552,
                0.5000000596046448
            ],
            "translation" : [
                -1,
                0,
                -8
            ]
        }
    ],
    "meshes" : [
        {
            "name" : "Plane",
            "primitives" : [
                {
                    "attributes" : {
                        "POSITION" : 0,
                        "TEXCOORD_0" : 1,
                        "NORMAL" : 2
                    },
                    "indices" : 3
                }
            ]
        },
        {
            "name" : "Plane.001",
            "primitives" : [
                {
                    "attributes" : {
                        "POSITION" : 4,
                        "TEXCOORD_0" : 5,
                        "NORMAL" : 6
                    },
                    "indices" : 3
                }
            ]
        },
        {
            "name" : "Plane.002",
            "primitives" : [
                {
                    "attributes" : {
                        "POSITION" : 7,
                        "TEXCOORD_0" : 8,
                        "NORMAL" : 9
                    },
                    "indices" : 3
                }
            ]
        },
        {
            "name" : "Text",
            "primitives" : [
                {
                    "attributes" : {
                        "POSITION" : 10,
                        "TEXCOORD_0" : 11,
                        "NORMAL" : 12
                    },
                    "indices" : 13
                }
            ]
        },
        {
            "name" : "Text.001",
            "primitives" : [
                {
                    "attributes" : {
                        "POSITION" : 14,
                        "TEXCOORD_0" : 15,
                        "NORMAL" : 16
                    },
                    "indices" : 17
                }
            ]
        }
    ],
    "accessors" : [
        {
            "bufferView" : 0,
            "componentType" : 5126,
            "count" : 4,
            "max" : [
                1,
                0,
                1
            ],
            "min" : [
                -1,
                0,
                -1
            ],
            "type" : "VEC3"
        },
        {
            "bufferView" : 1,
            "componentType" : 5126,
            "count" : 4,
            "type" : "VEC2"
        },
        {
            "bufferView" : 2,
            "componentType" : 5126,
            "count" : 4,
            "type" : "VEC3"
        },
        {
            "bufferView" : 3,
            "componentType" : 5123,
            "count" : 6,
            "type" : "SCALAR"
        },
        {
            "bufferView" : 4,
            "componentType" : 5126,
            "count" : 4,
            "max" : [
                1,
                0,
                1
            ],
            "min" : [
                -1,
                0,
                -1
            ],
            "type" : "VEC3"
        },
        {
            "bufferView" : 5,
            "componentType" : 5126,
            "count" : 4,
            "type" : "VEC2"
        },
        {
            "bufferView" : 6,
            "componentType" : 5126,
            "count" : 4,
            "type" : "VEC3"
        },
        {
            "bufferView" : 7,
            "componentType" : 5126,
            "count" : 4,
            "max" : [
                1,
                0,
                1
            ],
            "min" : [
                -1,
                0,
                -1
            ],
            "type" : "VEC3"
        },
        {
            "bufferView" : 8,
            "componentType" : 5126,
            "count" : 4,
            "type" : "VEC2"
        },
        {
            "bufferView" : 9,
            "componentType" : 5126,
            "count" : 4,
            "type" : "VEC3"
        },
        {
            "bufferView" : 10,
            "componentType" : 5126,
            "count" : 648,
            "max" : [
                0.9725000858306885,
                0,
                0.009000000543892384
            ],
            "min" : [
                -0.9334999918937683,
                0,
                -0.6910000443458557
            ],
            "type" : "VEC3"
        },
        {
            "bufferView" : 11,
            "componentType" : 5126,
            "count" : 648,
            "type" : "VEC2"
        },
        {
            "bufferView" : 12,
            "componentType" : 5126,
            "count" : 648,
            "type" : "VEC3"
        },
        {
            "bufferView" : 13,
            "componentType" : 5123,
            "count" : 1377,
            "type" : "SCALAR"
        },
        {
            "bufferView" : 14,
            "componentType" : 5126,
            "count" : 193,
            "max" : [
                0.6960000395774841,
                0,
                0
            ],
            "min" : [
                -0.6800000071525574,
                0,
                -0.6820000410079956
            ],
            "type" : "VEC3"
        },
        {
            "bufferView" : 15,
            "componentType" : 5126,
            "count" : 193,
            "type" : "VEC2"
        },
        {
            "bufferView" : 16,
            "componentType" : 5126,
            "count" : 193,
            "type" : "VEC3"
        },
        {
            "bufferView" : 17,
            "componentType" : 5123,
            "count" : 429,
            "type" : "SCALAR"
        }
    ],
    "bufferViews" : [
        {
            "buffer" : 0,
            "byteLength" : 48,
            "byteOffset" : 0,
            "target" : 34962
        },
        {
            "buffer" : 0,
            "byteLength" : 32,
            "byteOffset" : 48,
            "target" : 34962
        },
        {
            "buffer" : 0,
            "byteLength" : 48,
            "byteOffset" : 80,
            "target" : 34962
        },
        {
            "buffer" : 0,
            "byteLength" : 12,
            "byteOffset" : 128,
            "target" : 34963
        },
        {
            "buffer" : 0,
            "byteLength" : 48,
            "byteOffset" : 140,
            "target" : 34962
        },
        {
            "buffer" : 0,
            "byteLength" : 32,
            "byteOffset" : 188,
            "target" : 34962
        },
        {
            "buffer" : 0,
            "byteLength" : 48,
            "byteOffset" : 220,
            "target" : 34962
        },
        {
            "buffer" : 0,
            "byteLength" : 48,
            "byteOffset" : 268,
            "target" : 34962
        },
        {
            "buffer" : 0,
            "byteLength" : 32,
            "byteOffset" : 316,
            "target" : 34962
        },
        {
            "buffer" : 0,
            "byteLength" : 48,
            "byteOffset" : 348,
            "target" : 34962
        },
        {
            "buffer" : 0,
            "byteLength" : 7776,
            "byteOffset" : 396,
            "target" : 34962
        },
        {
            "buffer" : 0,
            "byteLength" : 5184,
            "byteOffset" : 8172,
            "target" : 34962
        },
        {
            "buffer" : 0,
            "byteLength" : 7776,
            "byteOffset" : 13356,
            "target" : 34962
        },
        {
            "buffer" : 0,
            "byteLength" : 2754,
            "byteOffset" : 21132,
            "target" : 34963
        },
        {
            "buffer" : 0,
            "byteLength" : 2316,
            "byteOffset" : 23888,
            "target" : 34962
        },
        {
            "buffer" : 0,
            "byteLength" : 1544,
            "byteOffset" : 26204,
            "target" : 34962
        },
        {
            "buffer" : 0,
            "byteLength" : 2316,
            "byteOffset" : 27748,
            "target" : 34962
        },
        {
            "buffer" : 0,
            "byteLength" : 858,
            "byteOffset" : 30064,
            "target" : 34963
        }
    ],
    "buffers" : [
        {
            "byteLength" : 30924,
            "uri" : "data:application/octet-stream;base64,"
        }
    ]
}
