{
	"asset":{
		"generator":"Khronos glTF Blender I/O v3.6.27",
		"version":"2.0"
	},
	"extensionsUsed":[
		"KHR_lights_punctual"
	],
	"extensionsRequired":[
		"KHR_lights_punctual"
	],
	"extensions":{
		"KHR_lights_punctual":{
			"lights":[
				{
					"color":[
						1,
						1,
						1
					],
					"intensity":2.0088235686998814,
					"type":"directional",
					"name":"Sun"
				}
			]
		}
	},
	"scene":0,
	"scenes":[
		{
			"extras":{
				"character_ui_object":{},
				"character_ui_physics_collection":{},
				"character_ui_object_body":{}
			},
			"name":"Scene",
			"nodes":[
				0,
				1,
				2,
				3,
				4,
				5
			]
		}
	],
	"nodes":[
		{
			"extensions":{
				"KHR_lights_punctual":{
					"light":0
				}
			},
			"name":"Sun",
			"rotation":[
				-0.5276240706443787,
				0.29710015654563904,
				-0.36804303526878357,
				0.7056123614311218
			],
			"translation":[
				4.347398281097412,
				3.6654140949249268,
				-0.9135676026344299
			]
		},
		{
			"mesh":0,
			"name":"Plane"
		},
		{
			"mesh":1,
			"name":"Plane.001"
		},
		{
			"mesh":2,
			"name":"Plane.002"
		},
		{
			"mesh":3,
			"name":"Plane.003"
		},
		{
			"mesh":4,
			"name":"Plane.004"
		}
	],
	"materials":[
		{
			"name":"Material.001",
			"pbrMetallicRoughness":{
				"baseColorFactor":[
					0.800000011920929,
					0.800000011920929,
					0.800000011920929,
					1
				],
				"metallicFactor":0.5,
				"roughnessFactor":0.800000011920929
			}
		}
	],
	"meshes":[
		{
			"name":"Plane.001",
			"primitives":[
				{
					"attributes":{
						"POSITION":0,
						"NORMAL":1,
						"TEXCOORD_0":2
					},
					"indices":3,
					"material":0
				}
			]
		},
		{
			"name":"Plane.002",
			"primitives":[
				{
					"attributes":{
						"POSITION":4,
						"NORMAL":5,
						"TEXCOORD_0":6
					},
					"indices":7,
					"material":0
				}
			]
		},
		{
			"name":"Plane.003",
			"primitives":[
				{
					"attributes":{
						"POSITION":8,
						"NORMAL":9,
						"TEXCOORD_0":10
					},
					"indices":11,
					"material":0
				}
			]
		},
		{
			"name":"Plane.004",
			"primitives":[
				{
					"attributes":{
						"POSITION":12,
						"NORMAL":13,
						"TEXCOORD_0":14
					},
					"indices":15,
					"material":0
				}
			]
		},
		{
			"name":"Plane.005",
			"primitives":[
				{
					"attributes":{
						"POSITION":16,
						"NORMAL":17,
						"TEXCOORD_0":18
					},
					"indices":19,
					"material":0
				}
			]
		}
	],
	"accessors":[
		{
			"bufferView":0,
			"componentType":5126,
			"count":237,
			"max":[
				7.000000953674316,
				9.026302337646484,
				37
			],
			"min":[
				-49.999977111816406,
				0,
				-50
			],
			"type":"VEC3"
		},
		{
			"bufferView":1,
			"componentType":5126,
			"count":237,
			"type":"VEC3"
		},
		{
			"bufferView":2,
			"componentType":5126,
			"count":237,
			"type":"VEC2"
		},
		{
			"bufferView":3,
			"componentType":5123,
			"count":468,
			"type":"SCALAR"
		},
		{
			"bufferView":4,
			"componentType":5126,
			"count":22,
			"max":[
				7,
				8.005364418029785,
				37
			],
			"min":[
				-16.000003814697266,
				0.005364418029785156,
				20
			],
			"type":"VEC3"
		},
		{
			"bufferView":5,
			"componentType":5126,
			"count":22,
			"type":"VEC3"
		},
		{
			"bufferView":6,
			"componentType":5126,
			"count":22,
			"type":"VEC2"
		},
		{
			"bufferView":7,
			"componentType":5123,
			"count":60,
			"type":"SCALAR"
		},
		{
			"bufferView":8,
			"componentType":5126,
			"count":136,
			"max":[
				-29.978816986083984,
				0.013247013092041016,
				37
			],
			"min":[
				-38.77881622314453,
				-3.7314562797546387,
				28.199996948242188
			],
			"type":"VEC3"
		},
		{
			"bufferView":9,
			"componentType":5126,
			"count":136,
			"type":"VEC3"
		},
		{
			"bufferView":10,
			"componentType":5126,
			"count":136,
			"type":"VEC2"
		},
		{
			"bufferView":11,
			"componentType":5123,
			"count":378,
			"type":"SCALAR"
		},
		{
			"bufferView":12,
			"componentType":5126,
			"count":130,
			"max":[
				-29.978816986083984,
				0.008543968200683594,
				37
			],
			"min":[
				-38.77881622314453,
				-3.7314562797546387,
				28.199996948242188
			],
			"type":"VEC3"
		},
		{
			"bufferView":13,
			"componentType":5126,
			"count":130,
			"type":"VEC3"
		},
		{
			"bufferView":14,
			"componentType":5126,
			"count":130,
			"type":"VEC2"
		},
		{
			"bufferView":15,
			"componentType":5123,
			"count":384,
			"type":"SCALAR"
		},
		{
			"bufferView":16,
			"componentType":5126,
			"count":225,
			"max":[
				-30,
				20,
				-10
			],
			"min":[
				-50,
				0,
				-50
			],
			"type":"VEC3"
		},
		{
			"bufferView":17,
			"componentType":5126,
			"count":225,
			"type":"VEC3"
		},
		{
			"bufferView":18,
			"componentType":5126,
			"count":225,
			"type":"VEC2"
		},
		{
			"bufferView":19,
			"componentType":5123,
			"count":309,
			"type":"SCALAR"
		}
	],
	"bufferViews":[
		{
			"buffer":0,
			"byteLength":2844,
			"byteOffset":0,
			"target":34962
		},
		{
			"buffer":0,
			"byteLength":2844,
			"byteOffset":2844,
			"target":34962
		},
		{
			"buffer":0,
			"byteLength":1896,
			"byteOffset":5688,
			"target":34962
		},
		{
			"buffer":0,
			"byteLength":936,
			"byteOffset":7584,
			"target":34963
		},
		{
			"buffer":0,
			"byteLength":264,
			"byteOffset":8520,
			"target":34962
		},
		{
			"buffer":0,
			"byteLength":264,
			"byteOffset":8784,
			"target":34962
		},
		{
			"buffer":0,
			"byteLength":176,
			"byteOffset":9048,
			"target":34962
		},
		{
			"buffer":0,
			"byteLength":120,
			"byteOffset":9224,
			"target":34963
		},
		{
			"buffer":0,
			"byteLength":1632,
			"byteOffset":9344,
			"target":34962
		},
		{
			"buffer":0,
			"byteLength":1632,
			"byteOffset":10976,
			"target":34962
		},
		{
			"buffer":0,
			"byteLength":1088,
			"byteOffset":12608,
			"target":34962
		},
		{
			"buffer":0,
			"byteLength":756,
			"byteOffset":13696,
			"target":34963
		},
		{
			"buffer":0,
			"byteLength":1560,
			"byteOffset":14452,
			"target":34962
		},
		{
			"buffer":0,
			"byteLength":1560,
			"byteOffset":16012,
			"target":34962
		},
		{
			"buffer":0,
			"byteLength":1040,
			"byteOffset":17572,
			"target":34962
		},
		{
			"buffer":0,
			"byteLength":768,
			"byteOffset":18612,
			"target":34963
		},
		{
			"buffer":0,
			"byteLength":2700,
			"byteOffset":19380,
			"target":34962
		},
		{
			"buffer":0,
			"byteLength":2700,
			"byteOffset":22080,
			"target":34962
		},
		{
			"buffer":0,
			"byteLength":1800,
			"byteOffset":24780,
			"target":34962
		},
		{
			"buffer":0,
			"byteLength":618,
			"byteOffset":26580,
			"target":34963
		}
	],
	"buffers":[
		{
			"byteLength":27200,
			"uri":"data:application/octet-stream;base64,"
		}
	]
}
