{
	"asset":{
		"generator":"Khronos glTF Blender I/O v3.6.27",
		"version":"2.0"
	},
	"extensionsUsed":[
		"KHR_lights_punctual"
	],
	"extensionsRequired":[
		"KHR_lights_punctual"
	],
	"extensions":{
		"KHR_lights_punctual":{
			"lights":[
				{
					"color":[
						1,
						1,
						1
					],
					"intensity":2.0088235686998814,
					"type":"directional",
					"name":"Sun"
				}
			]
		}
	},
	"scene":0,
	"scenes":[
		{
			"extras":{
				"character_ui_object":{},
				"character_ui_physics_collection":{},
				"character_ui_object_body":{}
			},
			"name":"Scene",
			"nodes":[
				0,
				1,
				2,
				3
			]
		}
	],
	"nodes":[
		{
			"extensions":{
				"KHR_lights_punctual":{
					"light":0
				}
			},
			"name":"Sun",
			"rotation":[
				-0.5276240706443787,
				0.29710015654563904,
				-0.36804303526878357,
				0.7056123614311218
			],
			"translation":[
				4.347398281097412,
				3.6654140949249268,
				-0.9135676026344299
			]
		},
		{
			"mesh":0,
			"name":"Plane"
		},
		{
			"mesh":1,
			"name":"Plane.004"
		},
		{
			"mesh":2,
			"name":"Plane.001"
		}
	],
	"materials":[
		{
			"name":"Material.001",
			"pbrMetallicRoughness":{
				"baseColorFactor":[
					0.800000011920929,
					0.800000011920929,
					0.800000011920929,
					1
				],
				"metallicFactor":0.5,
				"roughnessFactor":0.800000011920929
			}
		}
	],
	"meshes":[
		{
			"name":"Plane.001",
			"primitives":[
				{
					"attributes":{
						"POSITION":0,
						"NORMAL":1,
						"TEXCOORD_0":2
					},
					"indices":3,
					"material":0
				}
			]
		},
		{
			"name":"Plane.005",
			"primitives":[
				{
					"attributes":{
						"POSITION":4,
						"NORMAL":5,
						"TEXCOORD_0":6
					},
					"indices":7,
					"material":0
				}
			]
		},
		{
			"name":"Plane.007",
			"primitives":[
				{
					"attributes":{
						"POSITION":8,
						"NORMAL":9,
						"TEXCOORD_0":10
					},
					"indices":11,
					"material":0
				}
			]
		}
	],
	"accessors":[
		{
			"bufferView":0,
			"componentType":5126,
			"count":267,
			"max":[
				7.000000953674316,
				9.026302337646484,
				56
			],
			"min":[
				-49.999977111816406,
				0,
				-50
			],
			"type":"VEC3"
		},
		{
			"bufferView":1,
			"componentType":5126,
			"count":267,
			"type":"VEC3"
		},
		{
			"bufferView":2,
			"componentType":5126,
			"count":267,
			"type":"VEC2"
		},
		{
			"bufferView":3,
			"componentType":5123,
			"count":546,
			"type":"SCALAR"
		},
		{
			"bufferView":4,
			"componentType":5126,
			"count":225,
			"max":[
				-30,
				20,
				-10
			],
			"min":[
				-50,
				0,
				-50
			],
			"type":"VEC3"
		},
		{
			"bufferView":5,
			"componentType":5126,
			"count":225,
			"type":"VEC3"
		},
		{
			"bufferView":6,
			"componentType":5126,
			"count":225,
			"type":"VEC2"
		},
		{
			"bufferView":7,
			"componentType":5123,
			"count":309,
			"type":"SCALAR"
		},
		{
			"bufferView":8,
			"componentType":5126,
			"count":40,
			"max":[
				7,
				8.005364418029785,
				47.00000762939453
			],
			"min":[
				-30,
				0,
				20
			],
			"type":"VEC3"
		},
		{
			"bufferView":9,
			"componentType":5126,
			"count":40,
			"type":"VEC3"
		},
		{
			"bufferView":10,
			"componentType":5126,
			"count":40,
			"type":"VEC2"
		},
		{
			"bufferView":11,
			"componentType":5123,
			"count":114,
			"type":"SCALAR"
		}
	],
	"bufferViews":[
		{
			"buffer":0,
			"byteLength":3204,
			"byteOffset":0,
			"target":34962
		},
		{
			"buffer":0,
			"byteLength":3204,
			"byteOffset":3204,
			"target":34962
		},
		{
			"buffer":0,
			"byteLength":2136,
			"byteOffset":6408,
			"target":34962
		},
		{
			"buffer":0,
			"byteLength":1092,
			"byteOffset":8544,
			"target":34963
		},
		{
			"buffer":0,
			"byteLength":2700,
			"byteOffset":9636,
			"target":34962
		},
		{
			"buffer":0,
			"byteLength":2700,
			"byteOffset":12336,
			"target":34962
		},
		{
			"buffer":0,
			"byteLength":1800,
			"byteOffset":15036,
			"target":34962
		},
		{
			"buffer":0,
			"byteLength":618,
			"byteOffset":16836,
			"target":34963
		},
		{
			"buffer":0,
			"byteLength":480,
			"byteOffset":17456,
			"target":34962
		},
		{
			"buffer":0,
			"byteLength":480,
			"byteOffset":17936,
			"target":34962
		},
		{
			"buffer":0,
			"byteLength":320,
			"byteOffset":18416,
			"target":34962
		},
		{
			"buffer":0,
			"byteLength":228,
			"byteOffset":18736,
			"target":34963
		}
	],
	"buffers":[
		{
			"byteLength":18964,
			"uri":"data:application/octet-stream;base64,"
		}
	]
}
